{
  "source": "C:\\Users\\Peter\\Desktop\\stuff\\MIUN\\quantitative_research\\video_compression\\videos\\BVI-HD\\BVI-HD_CDVL_videos\\ORIG\\Rowing_1920x1080_30fps.mp4",
  "output": "C:\\Users\\Peter\\Desktop\\stuff\\MIUN\\quantitative_research\\video_compression\\compressed_videos\\BVI-HD\\h264\\4\\Rowing_1920x1080_30fps_h264.mp4",
  "codec": "h264",
  "ok": "Input #0, mov,mp4,m4a,3gp,3g2,mj2, from 'C:\\Users\\Peter\\Desktop\\stuff\\MIUN\\quantitative_research\\video_compression\\videos\\BVI-HD\\BVI-HD_CDVL_videos\\ORIG\\Rowing_1920x1080_30fps.mp4':\n  Metadata:\n    major_brand     : isom\n    minor_version   : 512\n    compatible_brands: isomiso2avc1mp41\n    encoder         : Lavf54.28.101\n  Duration: 00:00:05.00, start: 0.000000, bitrate: 259220 kb/s\n  Stream #0:0[0x1](und): Video: h264 (High 4:4:4 Predictive) (avc1 / 0x31637661), yuv420p(progressive), 1920x1080, 259216 kb/s, 30 fps, 30 tbr, 30 tbn (default)\n    Metadata:\n      handler_name    : VideoHandler\n      vendor_id       : [0][0][0][0]\n[out#0/mp4 @ 0000019223f89a40] Codec AVOption b:a (set bitrate (in bits/s)) has not been used for any stream. The most likely reason is either wrong type (e.g. a video option with no video streams) or that it is a private option of some decoder which was not actually used for any stream.\nStream mapping:\n  Stream #0:0 -> #0:0 (h264 (native) -> h264 (libx264))\nPress [q] to stop, [?] for help\n[libx264 @ 00000192249f0a40] using cpu capabilities: MMX2 SSE2Fast SSSE3 SSE4.2 AVX FMA3 BMI2 AVX2\n[libx264 @ 00000192249f0a40] profile High, level 5.0, 4:2:0, 8-bit\n[libx264 @ 00000192249f0a40] 264 - core 165 r3222 b35605a - H.264/MPEG-4 AVC codec - Copyleft 2003-2025 - http://www.videolan.org/x264.html - options: cabac=1 ref=5 deblock=1:0:0 analyse=0x3:0x113 me=hex subme=8 psy=1 psy_rd=1.00:0.00 mixed_ref=1 me_range=16 chroma_me=1 trellis=2 8x8dct=1 cqm=0 deadzone=21,11 fast_pskip=1 chroma_qp_offset=-2 threads=18 lookahead_threads=3 sliced_threads=0 nr=0 decimate=1 interlaced=0 bluray_compat=0 constrained_intra=0 bframes=3 b_pyramid=2 b_adapt=1 b_bias=0 direct=3 weightb=1 open_gop=0 weightp=2 keyint=250 keyint_min=25 scenecut=40 intra_refresh=0 rc_lookahead=50 rc=cbr mbtree=1 bitrate=4000 ratetol=1.0 qcomp=0.60 qpmin=0 qpmax=69 qpstep=4 vbv_maxrate=4000 vbv_bufsize=4000 nal_hrd=none filler=0 ip_ratio=1.40 aq=1:1.00\nOutput #0, mp4, to 'C:\\Users\\Peter\\Desktop\\stuff\\MIUN\\quantitative_research\\video_compression\\compressed_videos\\BVI-HD\\h264\\4\\Rowing_1920x1080_30fps_h264.mp4':\n  Metadata:\n    major_brand     : isom\n    minor_version   : 512\n    compatible_brands: isomiso2avc1mp41\n    encoder         : Lavf62.3.100\n  Stream #0:0(und): Video: h264 (avc1 / 0x31637661), yuv420p(tv, progressive), 1920x1080, q=2-31, 4000 kb/s, 30 fps, 15360 tbn (default)\n    Metadata:\n      encoder         : Lavc62.11.100 libx264\n      handler_name    : VideoHandler\n      vendor_id       : [0][0][0][0]\n    Side data:\n      cpb: bitrate max/min/avg: 4000000/0/4000000 buffer size: 4000000 vbv_delay: N/A\nframe=    0 fps=0.0 q=0.0 size=       0KiB time=N/A bitrate=N/A speed=N/A elapsed=0:00:00.51    \nframe=    0 fps=0.0 q=0.0 size=       0KiB time=N/A bitrate=N/A speed=N/A elapsed=0:00:01.09    \nframe=    0 fps=0.0 q=0.0 size=       0KiB time=N/A bitrate=N/A speed=N/A elapsed=0:00:01.60    \nframe=    0 fps=0.0 q=0.0 size=       0KiB time=N/A bitrate=N/A speed=N/A elapsed=0:00:02.14    \nframe=    1 fps=0.4 q=44.0 size=       0KiB time=-00:00:00.03 bitrate=N/A speed=N/A elapsed=0:00:02.67    \nframe=   12 fps=3.7 q=43.0 size=       0KiB time=00:00:00.33 bitrate=   1.2kbits/s speed=0.103x elapsed=0:00:03.23    \nframe=   23 fps=6.0 q=43.0 size=     256KiB time=00:00:00.70 bitrate=2996.5kbits/s speed=0.183x elapsed=0:00:03.81    \nframe=   34 fps=7.8 q=43.0 size=     256KiB time=00:00:01.06 bitrate=1966.4kbits/s speed=0.245x elapsed=0:00:04.35    \nframe=   47 fps=9.6 q=44.0 size=     512KiB time=00:00:01.50 bitrate=2796.5kbits/s speed=0.306x elapsed=0:00:04.89    \nframe=   61 fps= 11 q=43.0 size=     768KiB time=00:00:01.96 bitrate=3199.2kbits/s speed=0.362x elapsed=0:00:05.42    \nframe=   75 fps= 13 q=43.0 size=    1024KiB time=00:00:02.43 bitrate=3447.5kbits/s speed=0.408x elapsed=0:00:05.96    \nframe=  103 fps= 16 q=42.0 size=    1536KiB time=00:00:03.33 bitrate=3775.0kbits/s speed=0.513x elapsed=0:00:06.49    \nframe=  125 fps= 18 q=40.0 size=    1792KiB time=00:00:04.03 bitrate=3639.8kbits/s speed=0.574x elapsed=0:00:07.02    \nframe=  146 fps= 19 q=-1.0 size=    2048KiB time=00:00:04.76 bitrate=3519.8kbits/s speed=0.63x elapsed=0:00:07.56    \n[mp4 @ 0000019223f91400] Starting second pass: moving the moov atom to the beginning of the file\n[out#0/mp4 @ 0000019223f89a40] video:2222KiB audio:0KiB subtitle:0KiB other streams:0KiB global headers:0KiB muxing overhead: 0.065870%\nframe=  150 fps= 19 q=-1.0 Lsize=    2224KiB time=00:00:04.93 bitrate=3692.7kbits/s speed=0.639x elapsed=0:00:07.72    \n[libx264 @ 00000192249f0a40] frame I:1     Avg QP:39.97  size: 23089\n[libx264 @ 00000192249f0a40] frame P:149   Avg QP:42.27  size: 15113\n[libx264 @ 00000192249f0a40] mb I  I16..4: 43.5% 52.0%  4.4%\n[libx264 @ 00000192249f0a40] mb P  I16..4: 15.1% 12.6%  0.6%  P16..4: 31.4%  2.2%  2.3%  0.0%  0.0%    skip:35.8%\n[libx264 @ 00000192249f0a40] 8x8 transform intra:44.8% inter:89.9%\n[libx264 @ 00000192249f0a40] coded y,uvDC,uvAC intra: 19.5% 13.0% 0.2% inter: 8.9% 9.7% 0.0%\n[libx264 @ 00000192249f0a40] i16 v,h,dc,p: 29% 34%  8% 29%\n[libx264 @ 00000192249f0a40] i8 v,h,dc,ddl,ddr,vr,hd,vl,hu:  2%  3% 18%  6% 24% 10% 22%  5% 11%\n[libx264 @ 00000192249f0a40] i4 v,h,dc,ddl,ddr,vr,hd,vl,hu:  2%  2% 10%  7% 28% 10% 18%  6% 17%\n[libx264 @ 00000192249f0a40] i8c dc,h,v,p: 94%  5%  0%  0%\n[libx264 @ 00000192249f0a40] Weighted P-Frames: Y:0.0% UV:0.0%\n[libx264 @ 00000192249f0a40] ref P L0: 43.7%  4.1% 21.0% 11.3% 10.1%  9.8%\n[libx264 @ 00000192249f0a40] kb/s:3639.87\n",
  "seconds": 8.016621112823486,
  "probe_out": {}
}